:FULLY-SPECIFIED
:FORCE-ALL-JOINTS-BE-3DOF
:DEGREES
68
root 5.9749 16.7549 -28.021 11.0757 2.84472 -3.6078
lfemur -34.4487 15.2356 -18.2221
ltibia 52.3727 0 0
lfoot -21.3065 -13.0281 0
ltoes 33.7057 0 0
rfemur -16.8956 -1.02383 22.0302
rtibia 29.6859 0 0
rfoot -28.1788 -18.1434 0
rtoes -9.19669 0 0
lowerback -3.76899 2.36684 3.44527
upperback -1.38749 3.0351 -0.350971
thorax 0.879436 1.51442 -2.15229
lowerneck -9.91284 -2.37381 2.02776
upperneck -5.59729 -3.29812 2.21581
head -0.103414 -1.66216 0.256506
lclavicle 2.39669e-14 7.10441e-15 0
lhumerus -40.332 -13.0274 94.2018
lradius 44.0226 0 0
lwrist 7.62241 0 0
lhand -11.4515 2.23354 0
lfingers 7.12502 0 0
lthumb 14.5869 31.7178 0
rclavicle 2.39669e-14 7.10441e-15 0
rhumerus -39.5856 1.4238 -92.4068
rradius 42.4225 0 0
rwrist 7.08124 0 0
rhand -24.8294 -22.1879 0
rfingers 7.12502 0 0
rthumb 1.67626 -52.1612 0
69
root 5.9982 16.7513 -27.9878 11.1454 2.80521 -3.61827
lfemur -34.6 15.4422 -18.2585
ltibia 52.5884 0 0
lfoot -21.2547 -13.183 0
ltoes 33.7711 0 0
rfemur -16.7376 -1.03668 22.1844
rtibia 29.2854 0 0
rfoot -28.5972 -18.4133 0
rtoes -9.50084 0 0
lowerback -3.80457 2.37413 3.49136
upperback -1.39222 3.04301 -0.370732
thorax 0.897439 1.51826 -2.1974
lowerneck -9.90994 -2.36084 2.01994
upperneck -5.6473 -3.27894 2.23156
head -0.119244 -1.65296 0.264055
lclavicle 2.43762e-14 7.1594e-15 0
lhumerus -40.2799 -13.0476 94.1934
lradius 44.0075 0 0
lwrist 7.57488 0 0
lhand -11.5843 2.18097 0
lfingers 7.12502 0 0
lthumb 14.4597 31.6828 0
rclavicle 2.43762e-14 7.1594e-15 0
rhumerus -39.5628 1.46099 -92.5816
rradius 42.386 0 0
rwrist 7.081 0 0
rhand -24.8395 -22.2429 0
rfingers 7.12502 0 0
rthumb 1.66653 -52.2164 0
70
root 6.02149 16.7477 -27.9547 11.22 2.74553 -3.62203
lfemur -34.7161 15.6269 -18.3107
ltibia 52.768 0 0
lfoot -21.2475 -13.3083 0
ltoes 33.8593 0 0
rfemur -16.568 -1.02312 22.3444
rtibia 28.8497 0 0
rfoot -29.0532 -18.714 0
rtoes -9.76864 0 0
lowerback -3.85125 2.38066 3.52997
upperback -1.39816 3.05013 -0.391853
thorax 0.919983 1.5217 -2.23938
lowerneck -9.90502 -2.34253 2.01356
upperneck -5.69385 -3.25289 2.24629
head -0.134313 -1.64031 0.27129
lclavicle 2.47524e-14 7.20898e-15 0
lhumerus -40.224 -13.0741 94.1936
lradius 43.9778 0 0
lwrist 7.5179 0 0
lhand -11.7336 2.1266 0
lfingers 7.12502 0 0
lthumb 14.3166 31.6479 0
rclavicle 2.47524e-14 7.20898e-15 0
rhumerus -39.5415 1.47865 -92.7683
rradius 42.332 0 0
rwrist 7.09366 0 0
rhand -24.8591 -22.2988 0
rfingers 7.12502 0 0
rthumb 1.64762 -52.2726 0
71
root 6.04479 16.7441 -27.9215 11.2951 2.67306 -3.62409
lfemur -34.8044 15.7797 -18.3624
ltibia 52.9032 0 0
lfoot -21.2733 -13.3808 0
ltoes 33.9439 0 0
rfemur -16.3859 -0.99374 22.5066
rtibia 28.3918 0 0
rfoot -29.5295 -19.0286 0
rtoes -9.99818 0 0
lowerback -3.9047 2.3885 3.5613
upperback -1.40573 3.05926 -0.412017
thorax 0.944248 1.52615 -2.27604
lowerneck -9.89918 -2.32228 2.01038
upperneck -5.7356 -3.2247 2.25864
head -0.148113 -1.62661 0.277327
lclavicle 2.50611e-14 7.26668e-15 0
lhumerus -40.1705 -13.0981 94.1971
lradius 43.9384 0 0
lwrist 7.45751 0 0
lhand -11.8894 2.07286 0
lfingers 7.12502 0 0
lthumb 14.1673 31.6145 0
rclavicle 2.50611e-14 7.26668e-15 0
rhumerus -39.5189 1.48199 -92.9544
rradius 42.2686 0 0
rwrist 7.11646 0 0
rhand -24.8821 -22.3512 0
rfingers 7.12502 0 0
rthumb 1.62535 -52.3254 0
72
root 6.06809 16.7405 -27.8883 11.3667 2.59514 -3.62948
lfemur -34.8727 15.8911 -18.3974
ltibia 52.9861 0 0
lfoot -21.3208 -13.3774 0
ltoes 33.9987 0 0
rfemur -16.1902 -0.959108 22.6675
rtibia 27.9248 0 0
rfoot -30.0091 -19.3402 0
rtoes -10.1875 0 0
lowerback -3.96057 2.39971 3.58558
upperback -1.41535 3.07323 -0.428905
thorax 0.967417 1.53297 -2.30519
lowerneck -9.89351 -2.30348 2.01214
upperneck -5.77122 -3.19911 2.26722
head -0.160134 -1.61421 0.281282
lclavicle 2.52681e-14 7.34601e-15 0
lhumerus -40.1259 -13.1106 94.1984
lradius 43.8939 0 0
lwrist 7.39978 0 0
lhand -12.0417 2.02217 0
lfingers 7.12502 0 0
lthumb 14.0215 31.5839 0
rclavicle 2.52681e-14 7.34601e-15 0
rhumerus -39.4925 1.47619 -93.1275
rradius 42.2036 0 0
rwrist 7.14664 0 0
rhand -24.9026 -22.396 0
rfingers 7.12502 0 0
rthumb 1.60555 -52.3704 0
73
root 6.09138 16.7369 -27.8551 11.4307 2.51916 -3.64325
lfemur -34.9284 15.9511 -18.3995
ltibia 53.0085 0 0
lfoot -21.3786 -13.2748 0
ltoes 33.9973 0 0
rfemur -15.9799 -0.929806 22.8235
rtibia 27.4618 0 0
rfoot -30.4749 -19.6319 0
rtoes -10.3348 0 0
lowerback -4.01449 2.41634 3.60299
upperback -1.42746 3.09484 -0.440201
thorax 0.986669 1.54355 -2.32462
lowerneck -9.88909 -2.28953 2.0206
upperneck -5.79935 -3.18085 2.27068
head -0.169869 -1.6055 0.282272
lclavicle 2.53388e-14 7.4605e-15 0
lhumerus -40.0967 -13.1026 94.192
lradius 43.8493 0 0
lwrist 7.35077 0 0
lhand -12.1803 1.97693 0
lfingers 7.12502 0 0
lthumb 13.8886 31.5574 0
rclavicle 2.53388e-14 7.4605e-15 0
rhumerus -39.4598 1.46648 -93.275
rradius 42.1452 0 0
rwrist 7.18143 0 0
rhand -24.9146 -22.4286 0
rfingers 7.12502 0 0
rthumb 1.59402 -52.4032 0
74
root 6.11468 16.7333 -27.8219 11.483 2.45246 -3.67041
lfemur -34.9791 15.9501 -18.3524
ltibia 52.9624 0 0
lfoot -21.4353 -13.0497 0
ltoes 33.9134 0 0
rfemur -15.7541 -0.91641 22.9712
rtibia 27.0157 0 0
rfoot -30.9096 -19.8868 0
rtoes -10.438 0 0
lowerback -4.06212 2.44045 3.61375
upperback -1.44246 3.12693 -0.443586
thorax 0.999185 1.55929 -2.33214
lowerneck -9.88702 -2.2838 2.03752
upperneck -5.81866 -3.17465 2.26763
head -0.176809 -1.60286 0.279412
lclavicle 2.5239e-14 7.62368e-15 0
lhumerus -40.0891 -13.0653 94.1724
lradius 43.8092 0 0
lwrist 7.31653 0 0
lhand -12.2954 1.93956 0
lfingers 7.12502 0 0
lthumb 13.7785 31.5362 0
rclavicle 2.5239e-14 7.62368e-15 0
rhumerus -39.4181 1.45805 -93.3845
rradius 42.1013 0 0
rwrist 7.21808 0 0
rhand -24.9119 -22.445 0
rfingers 7.12502 0 0
rthumb 1.59658 -52.4194 0
75
root 6.13798 16.7297 -27.7887 11.5193 2.40242 -3.71599
lfemur -35.0323 15.8784 -18.24
ltibia 52.8397 0 0
lfoot -21.4795 -12.6791 0
ltoes 33.7207 0 0
rfemur -15.5118 -0.929499 23.1069
rtibia 26.5996 0 0
rfoot -31.2962 -20.088 0
rtoes -10.4953 0 0
lowerback -4.09912 2.4741 3.61806
upperback -1.46079 3.17229 -0.436743
thorax 1.00215 1.58155 -2.32555
lowerneck -9.88838 -2.28969 2.06464
upperneck -5.8278 -3.18524 2.2567
head -0.180444 -1.60866 0.27182
lclavicle 2.49343e-14 7.84906e-15 0
lhumerus -40.1096 -12.9898 94.1343
lradius 43.7786 0 0
lwrist 7.30311 0 0
lhand -12.3769 1.91247 0
lfingers 7.12502 0 0
lthumb 13.7006 31.5217 0
rclavicle 2.49343e-14 7.84906e-15 0
rhumerus -39.3649 1.45609 -93.4435
rradius 42.0799 0 0
rwrist 7.25381 0 0
rhand -24.8887 -22.4407 0
rfingers 7.12502 0 0
rthumb 1.61906 -52.4147 0
76
root 6.16128 16.7261 -27.7555 11.5356 2.37641 -3.78504
lfemur -35.0957 15.7261 -18.0459
ltibia 52.6324 0 0
lfoot -21.4999 -12.1396 0
ltoes 33.3929 0 0
rfemur -15.252 -0.979651 23.2271
rtibia 26.2265 0 0
rfoot -31.6176 -20.2186 0
rtoes -10.5048 0 0
lowerback -4.12112 2.51935 3.61613
upperback -1.48285 3.23375 -0.417353
thorax 0.992736 1.61173 -2.30266
lowerneck -9.89426 -2.31059 2.10372
upperneck -5.82544 -3.21736 2.23653
head -0.180267 -1.62527 0.25861
lclavicle 2.43903e-14 8.15016e-15 0
lhumerus -40.1645 -12.867 94.0721
lradius 43.7621 0 0
lwrist 7.31659 0 0
lhand -12.4148 1.89809 0
lfingers 7.12502 0 0
lthumb 13.6645 31.5152 0
rclavicle 2.43903e-14 8.15016e-15 0
rhumerus -39.2975 1.46582 -93.4395
rradius 42.0891 0 0
rwrist 7.28586 0 0
rhand -24.8387 -22.4113 0
rfingers 7.12502 0 0
rthumb 1.66727 -52.3846 0
77
root 6.18457 16.7225 -27.7223 11.5278 2.38177 -3.88257
lfemur -35.1768 15.4834 -17.7539
ltibia 52.3323 0 0
lfoot -21.4851 -11.408 0
ltoes 32.9036 0 0
rfemur -14.9737 -1.07745 23.3284
rtibia 25.9095 0 0
rfoot -31.8565 -20.2617 0
rtoes -10.4644 0 0
lowerback -4.12379 2.57824 3.60817
upperback -1.50909 3.31412 -0.383101
thorax 0.968131 1.65122 -2.26126
lowerneck -9.90576 -2.34989 2.15652
upperneck -5.81024 -3.27573 2.20573
head -0.175768 -1.65508 0.238899
lclavicle 2.35727e-14 8.54052e-15 0
lhumerus -40.2603 -12.6881 93.9804
lradius 43.7646 0 0
lwrist 7.36301 0 0
lhand -12.399 1.89881 0
lfingers 7.12502 0 0
lthumb 13.68 31.5179 0
rclavicle 2.35727e-14 8.54052e-15 0
rhumerus -39.2135 1.49243 -93.36
rradius 42.1368 0 0
rwrist 7.31147 0 0
rhand -24.7561 -22.3527 0
rfingers 7.12502 0 0
rthumb 1.74703 -52.3248 0
78
root 6.20787 16.7189 -27.6891 11.4916 2.42589 -4.01362
lfemur -35.2831 15.1407 -17.3479
ltibia 51.9314 0 0
lfoot -21.4235 -10.4611 0
ltoes 32.2266 0 0
rfemur -14.6759 -1.23346 23.4071
rtibia 25.6616 0 0
rfoot -31.996 -20.2004 0
rtoes -10.3724 0 0
lowerback -4.10277 2.65285 3.59439
upperback -1.53991 3.41622 -0.331667
thorax 0.925515 1.70139 -2.19917
lowerneck -9.92396 -2.41098 2.22478
upperneck -5.78084 -3.3651 2.16294
head -0.166438 -1.70046 0.211804
lclavicle 2.2447e-14 9.03365e-15 0
lhumerus -40.4034 -12.4442 93.8537
lradius 43.7908 0 0
lwrist 7.44844 0 0
lhand -12.3195 1.91707 0
lfingers 7.12502 0 0
lthumb 13.7567 31.5313 0
rclavicle 2.2447e-14 9.03365e-15 0
rhumerus -39.1101 1.54112 -93.1925
rradius 42.231 0 0
rwrist 7.32788 0 0
rhand -24.6349 -22.2605 0
rfingers 7.12502 0 0
rthumb 1.86415 -52.2309 0
79
root 6.23117 16.7153 -27.6559 11.423 2.51611 -4.18321
lfemur -35.4223 14.6882 -16.8115
ltibia 51.4216 0 0
lfoot -21.304 -9.27575 0
ltoes 31.3355 0 0
rfemur -14.3576 -1.45827 23.4598
rtibia 25.4959 0 0
rfoot -32.0188 -20.0178 0
rtoes -10.2268 0 0
lowerback -4.05371 2.74523 3.57498
upperback -1.57574 3.54286 -0.260733
thorax 0.862067 1.76363 -2.11418
lowerneck -9.94996 -2.49725 2.31025
upperneck -5.73592 -3.49019 2.10679
head -0.15177 -1.76379 0.17644
lclavicle 2.0979e-14 9.64307e-15 0
lhumerus -40.6 -12.1263 93.6866
lradius 43.8456 0 0
lwrist 7.57892 0 0
lhand -12.1663 1.95527 0
lfingers 7.12502 0 0
lthumb 13.9041 31.5565 0
rclavicle 2.0979e-14 9.64307e-15 0
rhumerus -38.9848 1.6171 -92.9246
rradius 42.3798 0 0
rwrist 7.33232 0 0
rhand -24.4689 -22.1304 0
rfingers 7.12502 0 0
rthumb 2.02446 -52.0985 0
80
root 6.25446 16.7117 -27.6228 11.3179 2.65982 -4.39639
lfemur -35.6018 14.1161 -16.1286
ltibia 50.7949 0 0
lfoot -21.115 -7.82867 0
ltoes 30.204 0 0
rfemur -14.0178 -1.76246 23.483
rtibia 25.4254 0 0
rfoot -31.9077 -19.6971 0
rtoes -10.0257 0 0
lowerback -3.97227 2.85743 3.55016
upperback -1.617 3.69686 -0.167984
thorax 0.77497 1.83933 -2.00409
lowerneck -9.98485 -2.61208 2.4147
upperneck -5.67413 -3.65573 2.0359
head -0.131254 -1.84744 0.131924
lclavicle 1.91342e-14 1.03823e-14 0
lhumerus -40.8567 -11.7255 93.4736
lradius 43.9337 0 0
lwrist 7.76053 0 0
lhand -11.9294 2.01582 0
lfingers 7.12502 0 0
lthumb 14.1319 31.5949 0
rclavicle 1.91342e-14 1.03823e-14 0
rhumerus -38.8351 1.72557 -92.5438
rradius 42.5911 0 0
rwrist 7.32203 0 0
rhand -24.2522 -21.958 0
rfingers 7.12502 0 0
rthumb 2.23376 -51.9231 0
81
root 6.27776 16.7081 -27.5896 11.1721 2.86436 -4.65817
lfemur -35.8292 13.4147 -15.2829
ltibia 50.0431 0 0
lfoot -20.8451 -6.09665 0
ltoes 28.8058 0 0
rfemur -13.6556 -2.1566 23.473
rtibia 25.463 0 0
rfoot -31.6458 -19.2212 0
rtoes -9.76718 0 0
lowerback -3.85409 2.99151 3.52013
upperback -1.66411 3.88104 -0.0510999
thorax 0.661403 1.92986 -1.86672
lowerneck -10.0297 -2.75887 2.53987
upperneck -5.59412 -3.86646 1.94889
head -0.104381 -1.95378 0.0773712
lclavicle 1.68783e-14 1.12649e-14 0
lhumerus -41.1799 -11.2329 93.2093
lradius 44.0599 0 0
lwrist 7.99932 0 0
lhand -11.5988 2.10115 0
lfingers 7.12502 0 0
lthumb 14.4496 31.6478 0
rclavicle 1.68783e-14 1.12649e-14 0
rhumerus -38.6584 1.87174 -92.0375
rradius 42.873 0 0
rwrist 7.29424 0 0
rhand -23.9787 -21.7391 0
rfingers 7.12502 0 0
rthumb 2.49789 -51.7006 0
